<?xml version="1.0" encoding="UTF-8"?>
<svg id="Capa_2" data-name="Capa 2" xmlns="http://www.w3.org/2000/svg" xmlns:xlink="http://www.w3.org/1999/xlink" viewBox="0 0 1500 400">
  <defs>
    <style>
      .cls-1 {
        fill: url(#Degradado_sin_nombre_6);
      }

      .cls-2 {
        fill: url(#Degradado_sin_nombre_6-4);
      }

      .cls-3 {
        fill: url(#Degradado_sin_nombre_15-2);
      }

      .cls-4 {
        fill: url(#Degradado_sin_nombre_9-2);
      }

      .cls-5 {
        fill: url(#Degradado_sin_nombre_6-3);
      }

      .cls-6 {
        fill: url(#Degradado_sin_nombre_9-6);
      }

      .cls-7 {
        fill: none;
      }

      .cls-8 {
        fill: url(#Degradado_sin_nombre_6-5);
      }

      .cls-9 {
        fill: url(#Degradado_sin_nombre_9-4);
      }

      .cls-10 {
        fill: url(#Degradado_sin_nombre_9-3);
      }

      .cls-11 {
        fill: url(#Degradado_sin_nombre_9);
      }

      .cls-12 {
        fill: url(#Degradado_sin_nombre_6-6);
      }

      .cls-13 {
        fill: url(#Degradado_sin_nombre_9-7);
      }

      .cls-14 {
        fill: url(#Degradado_sin_nombre_9-5);
      }

      .cls-15 {
        fill: url(#Degradado_sin_nombre_15);
      }

      .cls-16 {
        clip-path: url(#clippath);
      }

      .cls-17 {
        fill: url(#Degradado_sin_nombre_6-2);
      }
    </style>
    <clipPath id="clippath">
      <rect class="cls-7" width="1500" height="398.57"/>
    </clipPath>
    <linearGradient id="Degradado_sin_nombre_6" data-name="Degradado sin nombre 6" x1="59.66" y1="171.62" x2="61.4" y2="529.95" gradientUnits="userSpaceOnUse">
      <stop offset=".03" stop-color="#677b43"/>
      <stop offset=".76" stop-color="#384e2c"/>
    </linearGradient>
    <linearGradient id="Degradado_sin_nombre_9" data-name="Degradado sin nombre 9" x1="250.21" y1="270.28" x2="250.94" y2="421.9" gradientTransform="translate(-12.84 9.66) rotate(-2.15)" gradientUnits="userSpaceOnUse">
      <stop offset=".23" stop-color="#7da040"/>
      <stop offset=".88" stop-color="#456634"/>
    </linearGradient>
    <linearGradient id="Degradado_sin_nombre_6-2" data-name="Degradado sin nombre 6" x1="841.93" y1="200.97" x2="809.52" y2="463.58" xlink:href="#Degradado_sin_nombre_6"/>
    <linearGradient id="Degradado_sin_nombre_9-2" data-name="Degradado sin nombre 9" x1="787.43" y1="287.71" x2="787.81" y2="364.56" gradientTransform="matrix(1,0,0,1,0,0)" xlink:href="#Degradado_sin_nombre_9"/>
    <linearGradient id="Degradado_sin_nombre_15" data-name="Degradado sin nombre 15" x1="597.49" y1="239.94" x2="583.39" y2="425.09" gradientUnits="userSpaceOnUse">
      <stop offset=".1" stop-color="#677b43"/>
      <stop offset=".84" stop-color="#384e2c"/>
    </linearGradient>
    <linearGradient id="Degradado_sin_nombre_6-3" data-name="Degradado sin nombre 6" x1="497.81" y1="316.79" x2="498.56" y2="471.83" gradientTransform="translate(989.56) rotate(-180) scale(1.6 -1)" xlink:href="#Degradado_sin_nombre_6"/>
    <linearGradient id="Degradado_sin_nombre_6-4" data-name="Degradado sin nombre 6" x1="-809.24" y1="307.18" x2="-808.53" y2="453" gradientTransform="translate(1673.48) scale(1.17 1)" xlink:href="#Degradado_sin_nombre_6"/>
    <linearGradient id="Degradado_sin_nombre_9-3" data-name="Degradado sin nombre 9" x1="564.16" y1="345.41" x2="564.48" y2="412.76" gradientTransform="matrix(1,0,0,1,0,0)" xlink:href="#Degradado_sin_nombre_9"/>
    <linearGradient id="Degradado_sin_nombre_6-5" data-name="Degradado sin nombre 6" x1="1124.01" y1="174.75" x2="1125.75" y2="533.08" gradientTransform="translate(2659.78) rotate(-180) scale(1 -1)" xlink:href="#Degradado_sin_nombre_6"/>
    <linearGradient id="Degradado_sin_nombre_9-4" data-name="Degradado sin nombre 9" x1="1307.36" y1="269.6" x2="1308.05" y2="412.54" gradientTransform="translate(2659.78) rotate(-180) scale(1 -1)" xlink:href="#Degradado_sin_nombre_9"/>
    <linearGradient id="Degradado_sin_nombre_9-5" data-name="Degradado sin nombre 9" x1="1786.73" y1="302.82" x2="1787.2" y2="398.01" gradientTransform="translate(2659.78) rotate(-180) scale(1 -1)" xlink:href="#Degradado_sin_nombre_9"/>
    <linearGradient id="Degradado_sin_nombre_15-2" data-name="Degradado sin nombre 15" x1="1563.23" y1="255.59" x2="1549.13" y2="440.74" gradientTransform="translate(2659.78) rotate(-180) scale(1 -1)" xlink:href="#Degradado_sin_nombre_15"/>
    <linearGradient id="Degradado_sin_nombre_6-6" data-name="Degradado sin nombre 6" x1="48.67" y1="318.14" x2="49.38" y2="463.96" gradientTransform="translate(986.3) rotate(-180) scale(1.17 -1)" xlink:href="#Degradado_sin_nombre_6"/>
    <linearGradient id="Degradado_sin_nombre_9-6" data-name="Degradado sin nombre 9" x1="1704.25" y1="345.09" x2="1704.57" y2="412.11" gradientTransform="translate(2659.78) rotate(-180) scale(1 -1)" xlink:href="#Degradado_sin_nombre_9"/>
    <linearGradient id="Degradado_sin_nombre_9-7" data-name="Degradado sin nombre 9" x1="-190.77" y1="334.09" x2="-190.02" y2="488.99" gradientTransform="translate(1634.76 -25.24) rotate(-5.04) scale(1.6 1)" xlink:href="#Degradado_sin_nombre_9"/>
  </defs>
  <g class="cls-16">
    <g>
      <path class="cls-1" d="M-39.1,201.21c15.4-14.49,43.74-16.57,62.69-4.62,5.37,3.38,9.97,6.81,12.02,9.63,6.61,9.08,18.17,23.05,18.17,23.05,24.39-40.15,57.67,14.27,64.43,18.86,34.45-17.36,55.32,8.34,63.61,12.81,0,0,6.8-6.19,14.87-4.89,31.63,5.1,13.2,115.71,13.2,139.23s-246.16,18.63-246.16,18.63l-57.82-8.15c5.72-10.58-3.39-149.62,54.99-204.56Z"/>
      <path class="cls-11" d="M69.86,377.97s-14.54-50.51,3.94-78.74c31.69-43.35,75.45-15.19,93.58-1.84,0,0,46.43-18.2,77.7,3.8,31.28,22,26.93,28.54,26.93,28.54,17.52-13.74,44.56-20.69,63.11-2.37,44.69-42.17,93.51-5.38,108.13,18.44,0,0,13.09,42.5,13.09,42.5,0,0-4.57,15.96-9.71,16.82-5.14.86-316.89,21.98-316.89,21.98l-80.72-22.83,20.84-26.31Z"/>
      <path class="cls-17" d="M977.08,376.62c20.4-53.84,35.08-127.64-56.39-69.75-68.78-32.42-76.88-20.36-132.52,6.49-14.1,3.65-47.94-8.11-83.19-7.3s-46.53,45.83-46.53,45.83c0,0,33.84,32.44,33.84,32.44l284.79-7.71Z"/>
      <path class="cls-4" d="M867.23,361.72c6.92-13.38,9.23-36.5-13.07-37.72s-26.14,12.57-26.14,12.57c-3.44-6.65-23-24.97-35.37-6.89,0,0-12.3-42.58-46.13-41.77s-43.06,77.05-43.06,77.05l163.77-3.24Z"/>
      <path class="cls-15" d="M784.08,374.12c-7.97-37.38-74.43-77.43-107.56-58.8-17.82-58.81-145.73-85.87-135.96,2.03-19.85-17.2-39.93-4.04-33.85,13.79-35.26-32.76-72.9-45.5-87.91,8.11,0,0-30.58-17.84-25.66,14.19,4.91,32.04,12.01,39.34,12.01,39.34l378.93-18.66Z"/>
      <path class="cls-5" d="M369.79,324.64c-15.34-.52-94.77,24.42-102.82,33.69-32.39-25.62-98.2,4.89-114.58,13.37-17.16-9.52-104.31,1.3-113.1,9.09-23.2-9.58-110.3,5.73-117.51,26.91,75.65,21.73,472.75,13.07,540.55,7.43-15.55-17.5-42.36-89.33-92.54-90.49Z"/>
      <path class="cls-2" d="M596.06,314.6c11.23-.49,69.35,22.96,75.24,31.68,23.7-24.09,71.86,4.59,83.85,12.57,12.56-8.95,76.34,1.23,82.77,8.54,16.98-9.01,80.72,5.39,86,25.3-55.36,20.43-345.96,12.29-395.58,6.99,11.38-16.45,31-83.99,67.72-85.08Z"/>
      <path class="cls-10" d="M703,410.62c12.06-11.76,16.08-32.08-22.79-33.15-38.87-1.07-45.57,11.05-45.57,11.05-6-5.84-40.09-21.94-61.66-6.06,0,0-21.45-37.42-80.42-36.71-58.98.71-75.06,67.72-75.06,67.72l285.5-2.85Z"/>
      <path class="cls-8" d="M1634.54,204.34c-15.4-14.49-43.74-16.57-62.69-4.62-5.37,3.38-9.97,6.81-12.02,9.63-6.61,9.08-18.17,23.05-18.17,23.05-24.39-40.15-57.67,14.27-64.43,18.86-34.45-17.36-55.32,8.34-63.61,12.81,0,0-6.8-6.19-14.87-4.89-31.63,5.1-13.2,115.71-13.2,139.23,0,23.52,246.16,18.63,246.16,18.63l57.82-8.15c-5.72-10.58,3.39-149.62-54.99-204.56Z"/>
      <path class="cls-9" d="M1524.94,364.7s12.01-48.09-6.55-74.04c-31.67-39.72-72.25-11.64-89,1.58,0,0-44.77-15.5-73.71,6.33-28.94,21.83-24.57,27.84-24.57,27.84-17.14-12.32-43.08-17.91-60.06,0-43.97-38.14-89.05-1.76-102.1,21.2,0,0-10.92,40.5-10.92,40.5,0,0,4.91,14.87,9.83,15.5,4.91.63,301.94,9.49,301.94,9.49l75.89-24.36-20.75-24.05Z"/>
      <path class="cls-14" d="M764.17,394.55c-9.44-16.58-12.59-45.22,17.84-46.73,30.43-1.51,35.68,15.58,35.68,15.58,4.7-8.24,31.39-30.93,48.27-8.54,0,0,16.79-52.76,62.96-51.75s58.77,95.46,58.77,95.46l-223.52-4.02Z"/>
      <path class="cls-3" d="M909.96,389.77c7.97-37.38,74.43-77.43,107.56-58.8,17.82-58.81,145.73-85.87,135.96,2.03,19.85-17.2,39.93-4.04,33.85,13.79,35.26-32.76,72.9-45.5,87.91,8.11,0,0,30.58-17.84,25.66,14.19-4.91,32.04-12.01,39.34-12.01,39.34l-378.93-18.66Z"/>
      <path class="cls-12" d="M1058.86,325.55c-11.23-.49-69.35,22.96-75.24,31.68-23.7-24.09-71.86,4.59-83.85,12.57-12.56-8.95-76.34,1.23-82.77,8.54-16.98-9.01-80.72,5.39-86,25.3,55.36,20.43,345.96,12.29,395.58,6.99-11.38-16.45-31-83.99-67.72-85.08Z"/>
      <path class="cls-6" d="M690.67,410.62c-23.04-11.76-30.71-32.08,43.51-33.15s87.03,11.05,87.03,11.05c11.46-5.84,76.56-21.94,117.74-6.06,0,0,40.95-37.42,153.57-36.71,112.62.71,143.34,67.72,143.34,67.72l-545.19-2.85Z"/>
      <path class="cls-13" d="M1209.05,355.47c13.1-1.68,83.36,17.17,91.07,25.79,25.51-27.97,84.58-2.55,99.36,4.66,13.87-10.78,89.51-6.58,97.72.51,19.04-11.29,95.02-2.62,103.07,17.93-62.92,27.36-403.98,48.74-462.58,48.24,11.79-18.61,28.46-92.19,71.36-97.13Z"/>
    </g>
  </g>
</svg>