<?xml version="1.0" encoding="UTF-8"?>
<svg id="Capa_2" data-name="Capa 2" xmlns="http://www.w3.org/2000/svg" xmlns:xlink="http://www.w3.org/1999/xlink" viewBox="0 0 1500 400">
  <defs>
    <style>
      .cls-1 {
        fill: url(#Degradado_sin_nombre_6);
      }

      .cls-2 {
        fill: url(#Degradado_sin_nombre_6-4);
      }

      .cls-3 {
        fill: url(#Degradado_sin_nombre_15-2);
      }

      .cls-4 {
        fill: url(#Degradado_sin_nombre_9-2);
      }

      .cls-5 {
        fill: url(#Degradado_sin_nombre_6-3);
      }

      .cls-6 {
        fill: url(#Degradado_sin_nombre_9-6);
      }

      .cls-7 {
        fill: none;
      }

      .cls-8 {
        fill: url(#Degradado_sin_nombre_6-5);
      }

      .cls-9 {
        fill: url(#Degradado_sin_nombre_9-4);
      }

      .cls-10 {
        fill: url(#Degradado_sin_nombre_9-3);
      }

      .cls-11 {
        fill: url(#Degradado_sin_nombre_9);
      }

      .cls-12 {
        fill: url(#Degradado_sin_nombre_6-6);
      }

      .cls-13 {
        fill: url(#Degradado_sin_nombre_9-7);
      }

      .cls-14 {
        fill: url(#Degradado_sin_nombre_9-5);
      }

      .cls-15 {
        fill: url(#Degradado_sin_nombre_15);
      }

      .cls-16 {
        clip-path: url(#clippath);
      }

      .cls-17 {
        fill: url(#Degradado_sin_nombre_6-2);
      }
    </style>
    <clipPath id="clippath">
      <rect class="cls-7" width="1500" height="400"/>
    </clipPath>
    <linearGradient id="Degradado_sin_nombre_6" data-name="Degradado sin nombre 6" x1="59.86" y1="234.8" x2="61.22" y2="514.61" gradientUnits="userSpaceOnUse">
      <stop offset=".03" stop-color="#677b43"/>
      <stop offset=".76" stop-color="#384e2c"/>
    </linearGradient>
    <linearGradient id="Degradado_sin_nombre_9" data-name="Degradado sin nombre 9" x1="249.81" y1="310.59" x2="250.38" y2="429.12" gradientTransform="translate(-12.84 9.66) rotate(-2.15)" gradientUnits="userSpaceOnUse">
      <stop offset=".23" stop-color="#7da040"/>
      <stop offset=".88" stop-color="#456634"/>
    </linearGradient>
    <linearGradient id="Degradado_sin_nombre_6-2" data-name="Degradado sin nombre 6" x1="839.22" y1="249.88" x2="812.06" y2="470.02" xlink:href="#Degradado_sin_nombre_6"/>
    <linearGradient id="Degradado_sin_nombre_9-2" data-name="Degradado sin nombre 9" x1="787.5" y1="325.46" x2="787.79" y2="385.41" gradientTransform="matrix(1,0,0,1,0,0)" xlink:href="#Degradado_sin_nombre_9"/>
    <linearGradient id="Degradado_sin_nombre_15" data-name="Degradado sin nombre 15" x1="595.54" y1="287.59" x2="584.22" y2="436.2" gradientUnits="userSpaceOnUse">
      <stop offset=".1" stop-color="#677b43"/>
      <stop offset=".84" stop-color="#384e2c"/>
    </linearGradient>
    <linearGradient id="Degradado_sin_nombre_6-3" data-name="Degradado sin nombre 6" x1="497.91" y1="348.08" x2="498.5" y2="469.33" gradientTransform="translate(989.56) rotate(-180) scale(1.6 -1)" xlink:href="#Degradado_sin_nombre_6"/>
    <linearGradient id="Degradado_sin_nombre_6-4" data-name="Degradado sin nombre 6" x1="-809.15" y1="340.58" x2="-808.59" y2="454.63" gradientTransform="translate(1673.48) scale(1.17 1)" xlink:href="#Degradado_sin_nombre_6"/>
    <linearGradient id="Degradado_sin_nombre_9-3" data-name="Degradado sin nombre 9" x1="564.22" y1="370.47" x2="564.47" y2="422.97" gradientTransform="matrix(1,0,0,1,0,0)" xlink:href="#Degradado_sin_nombre_9"/>
    <linearGradient id="Degradado_sin_nombre_6-5" data-name="Degradado sin nombre 6" x1="1124.21" y1="237.24" x2="1125.57" y2="517.06" gradientTransform="translate(2659.78) rotate(-180) scale(1 -1)" xlink:href="#Degradado_sin_nombre_6"/>
    <linearGradient id="Degradado_sin_nombre_9-4" data-name="Degradado sin nombre 9" x1="1307.48" y1="311.23" x2="1308.02" y2="422.83" gradientTransform="translate(2659.78) rotate(-180) scale(1 -1)" xlink:href="#Degradado_sin_nombre_9"/>
    <linearGradient id="Degradado_sin_nombre_9-5" data-name="Degradado sin nombre 9" x1="1786.82" y1="337.24" x2="1787.18" y2="411.49" gradientTransform="translate(2659.78) rotate(-180) scale(1 -1)" xlink:href="#Degradado_sin_nombre_9"/>
    <linearGradient id="Degradado_sin_nombre_15-2" data-name="Degradado sin nombre 15" x1="1561.28" y1="299.81" x2="1549.96" y2="448.42" gradientTransform="translate(2659.78) rotate(-180) scale(1 -1)" xlink:href="#Degradado_sin_nombre_15"/>
    <linearGradient id="Degradado_sin_nombre_6-6" data-name="Degradado sin nombre 6" x1="48.76" y1="349.13" x2="49.32" y2="463.19" gradientTransform="translate(986.3) rotate(-180) scale(1.17 -1)" xlink:href="#Degradado_sin_nombre_6"/>
    <linearGradient id="Degradado_sin_nombre_9-6" data-name="Degradado sin nombre 9" x1="1704.31" y1="370.16" x2="1704.56" y2="422.74" gradientTransform="translate(2659.78) rotate(-180) scale(1 -1)" xlink:href="#Degradado_sin_nombre_9"/>
    <linearGradient id="Degradado_sin_nombre_9-7" data-name="Degradado sin nombre 9" x1="-191.07" y1="358.21" x2="-190.45" y2="486.14" gradientTransform="translate(1634.76 -25.24) rotate(-5.04) scale(1.6 1)" xlink:href="#Degradado_sin_nombre_9"/>
  </defs>
  <g class="cls-16">
    <g>
      <path class="cls-1" d="M-39.1,257.97c15.4-11.31,43.74-12.94,62.69-3.61,5.37,2.64,9.97,5.32,12.02,7.52,6.61,7.09,18.17,18,18.17,18,24.39-31.34,57.67,11.14,64.43,14.73,34.45-13.55,55.32,6.51,63.61,10,0,0,6.8-4.83,14.87-3.82,31.63,3.98,13.2,90.34,13.2,108.7s-246.16,14.54-246.16,14.54l-57.82-6.36c5.72-8.26-3.39-116.81,54.99-159.7Z"/>
      <path class="cls-11" d="M69.86,395.97s-14.54-39.43,3.94-61.47c31.69-33.84,75.45-11.86,93.58-1.43,0,0,46.43-14.21,77.7,2.97,31.28,17.18,26.93,22.28,26.93,22.28,17.52-10.72,44.56-16.15,63.11-1.85,44.69-32.92,93.51-4.2,108.13,14.4,0,0,13.09,33.18,13.09,33.18,0,0-4.57,12.46-9.71,13.13-5.14.68-316.89,17.16-316.89,17.16l-80.72-17.82,20.84-20.54Z"/>
      <path class="cls-17" d="M977.08,394.91c20.4-42.03,35.08-99.65-56.39-54.46-68.78-25.31-76.88-15.9-132.52,5.07-14.1,2.85-47.94-6.33-83.19-5.7-35.25.63-46.53,35.78-46.53,35.78,0,0,33.84,25.33,33.84,25.33l284.79-6.02Z"/>
      <path class="cls-4" d="M867.23,383.28c6.92-10.45,9.23-28.49-13.07-29.44-22.3-.95-26.14,9.81-26.14,9.81-3.44-5.19-23-19.49-35.37-5.38,0,0-12.3-33.24-46.13-32.61-33.83.63-43.06,60.16-43.06,60.16l163.77-2.53Z"/>
      <path class="cls-15" d="M784.08,392.96c-7.97-29.18-74.43-60.45-107.56-45.91-17.82-45.91-145.73-67.04-135.96,1.58-19.85-13.43-39.93-3.15-33.85,10.76-35.26-25.58-72.9-35.53-87.91,6.33,0,0-30.58-13.93-25.66,11.08,4.91,25.01,12.01,30.71,12.01,30.71l378.93-14.56Z"/>
      <path class="cls-5" d="M369.79,354.34c-15.34-.41-94.77,19.07-102.82,26.3-32.39-20-98.2,3.81-114.58,10.44-17.16-7.43-104.31,1.02-113.1,7.09-23.2-7.48-110.3,4.47-117.51,21.01,75.65,16.97,472.75,10.21,540.55,5.8-15.55-13.66-42.36-69.74-92.54-70.65Z"/>
      <path class="cls-2" d="M596.06,346.49c11.23-.38,69.35,17.93,75.24,24.73,23.7-18.8,71.86,3.59,83.85,9.81,12.56-6.99,76.34.96,82.77,6.67,16.98-7.03,80.72,4.21,86,19.75-55.36,15.95-345.96,9.6-395.58,5.46,11.38-12.84,31-65.57,67.72-66.42Z"/>
      <path class="cls-10" d="M703,421.46c12.06-9.18,16.08-25.04-22.79-25.88-38.87-.83-45.57,8.63-45.57,8.63-6-4.56-40.09-17.13-61.66-4.73,0,0-21.45-29.22-80.42-28.66-58.98.56-75.06,52.87-75.06,52.87l285.5-2.23Z"/>
      <path class="cls-8" d="M1634.54,260.42c-15.4-11.31-43.74-12.94-62.69-3.61-5.37,2.64-9.97,5.32-12.02,7.52-6.61,7.09-18.17,18-18.17,18-24.39-31.34-57.67,11.14-64.43,14.73-34.45-13.55-55.32,6.51-63.61,10,0,0-6.8-4.83-14.87-3.82-31.63,3.98-13.2,90.34-13.2,108.7,0,18.36,246.16,14.54,246.16,14.54l57.82-6.36c-5.72-8.26,3.39-116.81-54.99-159.7Z"/>
      <path class="cls-9" d="M1524.94,385.61s12.01-37.55-6.55-57.8c-31.67-31.01-72.25-9.08-89,1.24,0,0-44.77-12.1-73.71,4.94-28.94,17.04-24.57,21.74-24.57,21.74-17.14-9.62-43.08-13.98-60.06,0-43.97-29.78-89.05-1.38-102.1,16.55,0,0-10.92,31.62-10.92,31.62,0,0,4.91,11.61,9.83,12.1,4.91.49,301.94,7.41,301.94,7.41l75.89-19.02-20.75-18.77Z"/>
      <path class="cls-14" d="M764.17,408.91c-9.44-12.94-12.59-35.3,17.84-36.48,30.43-1.18,35.68,12.16,35.68,12.16,4.7-6.43,31.39-24.15,48.27-6.67,0,0,16.79-41.19,62.96-40.4,46.17.78,58.77,74.53,58.77,74.53l-223.52-3.14Z"/>
      <path class="cls-3" d="M909.96,405.18c7.97-29.18,74.43-60.45,107.56-45.91,17.82-45.91,145.73-67.04,135.96,1.58,19.85-13.43,39.93-3.15,33.85,10.76,35.26-25.58,72.9-35.53,87.91,6.33,0,0,30.58-13.93,25.66,11.08-4.91,25.01-12.01,30.71-12.01,30.71l-378.93-14.56Z"/>
      <path class="cls-12" d="M1058.86,355.05c-11.23-.38-69.35,17.93-75.24,24.73-23.7-18.8-71.86,3.59-83.85,9.81-12.56-6.99-76.34.96-82.77,6.67-16.98-7.03-80.72,4.21-86,19.75,55.36,15.95,345.96,9.6,395.58,5.46-11.38-12.84-31-65.57-67.72-66.42Z"/>
      <path class="cls-6" d="M690.67,421.46c-23.04-9.18-30.71-25.04,43.51-25.88,74.23-.83,87.03,8.63,87.03,8.63,11.46-4.56,76.56-17.13,117.74-4.73,0,0,40.95-29.22,153.57-28.66,112.62.56,143.34,52.87,143.34,52.87l-545.19-2.23Z"/>
      <path class="cls-13" d="M1209.05,378.41c13.1-1.31,83.36,13.4,91.07,20.14,25.51-21.83,84.58-1.99,99.36,3.64,13.87-8.42,89.51-5.14,97.72.4,19.04-8.82,95.02-2.05,103.07,13.99-62.92,21.36-403.98,38.05-462.58,37.66,11.79-14.53,28.46-71.97,71.36-75.83Z"/>
    </g>
  </g>
</svg>