<?xml version="1.0" encoding="UTF-8"?>
<svg id="Capa_2" data-name="Capa 2" xmlns="http://www.w3.org/2000/svg" viewBox="0 0 1020.56 772.51">
  <defs>
    <style>
      .cls-1 {
        fill: #71d2c1;
      }

      .cls-2 {
        fill: #32a1cc;
      }

      .cls-3 {
        fill: #3a3144;
      }

      .cls-4 {
        fill: #fff;
      }

      .cls-5 {
        fill: #fcdbb1;
      }

      .cls-6 {
        fill: #e5be1a;
      }

      .cls-7 {
        fill: #7ba844;
      }

      .cls-8 {
        fill: #b59c81;
      }

      .cls-9 {
        fill: #c8e89c;
      }

      .cls-10 {
        fill: #b71313;
      }

      .cls-11 {
        fill: #5b7f26;
      }

      .cls-12 {
        fill: #ffd8c5;
      }
    </style>
  </defs>
  <g id="Layer_1" data-name="Layer 1">
    <path class="cls-2" d="M603.85,246.11s45.24,132.07,42.82,133.37c-2.42,1.31-223.06-26.32-223.06-26.32l53.75-118.08"/>
    <path class="cls-5" d="M677.56,258.08l-13.33-47.76c-4.51,1.26-8.96,8.67-7.94,13.21-.68-3.04-6.96-13.81-22.01-27.66-13.06-12.02-28.35-22.19-38.96-25.9l16.38-46.8c18.38,6.43,40.75,21.27,59.83,39.67,23.29,22.47,34.81,42.94,34.23,60.83-.53,16.52-11.34,29.7-28.2,34.41Z"/>
    <ellipse class="cls-2" cx="533.91" cy="253.84" rx="69.12" ry="73.88" transform="translate(-33.62 88.31) rotate(-9.17)"/>
    <path class="cls-1" d="M492.11,750.14c18.24-5.69,18.24-17.84,16.07-37.38l43.87,6.13-8.25,52.05h-67.33s-2.61-15.11,15.64-20.8Z"/>
    <path class="cls-5" d="M508.18,712.75l43.87,6.13-4.06,25.62h-45.23c7.44-6.74,7.03-17.19,5.42-31.75Z"/>
    <g>
      <g>
        <path class="cls-1" d="M657.67,704.83c0,2.25,2.42,49.76,3.09,62.81.09,1.8-1.34,3.3-3.14,3.3h-79.37c-2.22,0-3.88-2.02-3.47-4.21,1.41-7.34,6.61-21.84,25.8-23.36,25.81-2.05,9.52-48.96,9.52-48.96"/>
        <path class="cls-5" d="M600.59,743.37h58.94c-.88-17.5-1.86-37.11-1.86-38.54l-47.57-10.43s16.29,46.91-9.52,48.96Z"/>
      </g>
      <path class="cls-12" d="M610.2,745.8c-1.58-2.6-4.03-4.59-6.9-5.6-.61-.22-.87.75-.27.96,2.62.93,4.86,2.77,6.3,5.14.33.55,1.2.05.86-.5h0Z"/>
      <path class="cls-12" d="M602.42,747.9c-.94-2.12-2.51-3.93-4.45-5.19-.54-.35-1.04.51-.5.86,1.81,1.17,3.22,2.86,4.09,4.83.11.25.47.3.68.18.25-.15.29-.44.18-.68h0Z"/>
      <path class="cls-12" d="M594.87,749.89c-1.21-2.28-2.92-4.25-4.97-5.81-.22-.16-.56-.03-.68.18-.15.26-.04.52.18.68,1.92,1.45,3.49,3.33,4.61,5.45.3.57,1.17.06.86-.5h0Z"/>
      <path class="cls-12" d="M617.81,741.78c-2.07-2.52-4.93-4.35-8.08-5.19-.62-.17-.89.8-.27.96,3,.8,5.67,2.53,7.64,4.93.41.5,1.11-.21.71-.71h0Z"/>
    </g>
    <path class="cls-5" d="M660.76,767.64c.09,1.8-1.34,3.3-3.14,3.3h-79.37c-2.22,0-3.88-2.02-3.47-4.21.09-.48.2-.99.33-1.53h85.52c.05.91.09,1.73.12,2.44Z"/>
    <path class="cls-5" d="M543.8,770.94h-67.33s-.42-2.44.26-5.74h67.98s-.91,5.74-.91,5.74Z"/>
    <path class="cls-12" d="M511.45,742.9c-1.42-2.11-3.42-3.74-5.77-4.72-.25-.1-.55.11-.62.35-.08.29.1.51.35.62,2.09.87,3.91,2.39,5.17,4.26.36.53,1.22.03.86-.5h0Z"/>
    <path class="cls-12" d="M506.18,747.49c-.98-2.02-2.72-3.59-4.8-4.43-.25-.1-.55.11-.62.35-.08.29.1.51.35.62,1.84.74,3.34,2.19,4.2,3.97.12.24.46.31.68.18.25-.14.3-.44.18-.68h0Z"/>
    <path class="cls-12" d="M500.63,750.25c-1.17-1.66-2.82-2.9-4.73-3.58-.25-.09-.55.1-.62.35-.08.28.09.52.35.62,1.65.59,3.12,1.7,4.13,3.12.16.22.44.32.68.18.22-.13.34-.46.18-.68h0Z"/>
    <path class="cls-12" d="M492.3,753.13c-.86-1.34-2.03-2.45-3.42-3.23-.23-.13-.56-.06-.68.18s-.06.55.18.68c1.24.7,2.3,1.69,3.06,2.87.15.23.44.32.68.18.23-.13.33-.46.18-.68h0Z"/>
    <polygon class="cls-11" points="959.77 772.51 83.55 772.51 144.35 305.02 1020.56 305.02 959.77 772.51"/>
    <polygon class="cls-7" points="236.69 406.15 177.65 354.99 0 354.99 72.98 772.51 959.44 772.51 895.3 406.15 236.69 406.15"/>
    <path class="cls-5" d="M372.6,342.26l-49.54-2.1c4.45-105.13,81.47-169.92,84.75-172.63l15.79,19.12,15.85,19.05c-.63.53-63.35,53.99-66.85,136.55Z"/>
    <path class="cls-5" d="M500.63,113.07c-.81-13.04-1.97-26.25-3.43-39.24l39.42-4.43c1.53,13.64,2.74,27.51,3.6,41.2l-39.59,2.47Z"/>
    <path class="cls-8" d="M508.98,86.21c7.63,5.85,22.06,8.32,29.98,6.89l-1.7-24.44s-31.53,15.07-28.29,17.55Z"/>
    <path class="cls-5" d="M507.48,5.92h11.52c12.28,0,22.24,9.97,22.24,22.24v36.48c0,13.28-10.78,24.05-24.05,24.05h-11.52c-13.28,0-24.05-10.78-24.05-24.05V31.78c0-14.27,11.59-25.86,25.86-25.86Z" transform="translate(1018.67 128) rotate(-176.25)"/>
    <path class="cls-6" d="M487.79,20.84s-2.23,16.52-3.83,16.81c-3.79.69-8.29-13.44-.91-23.41"/>
    <path class="cls-6" d="M478.37,9.04c-.64.57-1.01,1.37-1.02,2.23-.03,2.78,1.25,9.04,12.44,12.58,18.95,6.01,30.63-2.5,30.63-2.5l-11.68,8.5s14.59,2.62,18.22-4.64c0,0-1.62,7.67,7.87,11.89,3.33,1.48,3.23,8.5,3.23,8.5l4.54-2.22s5.96-8.32,2.93-19.61c-3.03-11.29-15.04-13.1-15.04-13.1,0,0-6.65-12.5-32.01-10.47-10.38.83-17.7,6.63-20.13,8.82Z"/>
    <path class="cls-5" d="M476.69,40.23c-1.6,6.47,2.32,17.03,9.84,17.52,0,0,3.23-18.18,3.24-18.19.22-1.22-5.06-3.99-5.99-4.16-3.99-.74-6.27,1.51-7.09,4.82Z"/>
    <path class="cls-3" d="M508.05,56.47c-.75-1.09-1.98-1.84-3.33-1.79s-2.51.8-3.21,1.92c-.28.44-.11,1.12.36,1.37.49.26,1.07.12,1.37-.36.03-.04.05-.08.08-.12.13-.2-.09.1,0,0,.07-.08.14-.17.22-.24.02-.02.22-.19.22-.19-.1.07-.12.09-.06.05.02-.01.04-.03.06-.04.04-.03.08-.05.12-.08.09-.06.19-.11.28-.15.14-.07-.01.03-.04.02.01,0,.14-.05.17-.06.1-.03.21-.05.31-.08.15-.04-.03-.02-.06,0,.03-.02.14-.01.18-.01.1,0,.19,0,.29,0,.2.01.02.04-.01,0,.02.02.12.02.14.03.11.02.21.05.31.09.03,0,.18.07.05.02-.14-.06.05.03.08.04.1.05.19.11.29.17.02.01.16.11.05.03s.02.02.04.04c.08.07.17.15.24.23.02.02.16.18.07.07s.05.07.06.08c.3.43.89.67,1.37.36.43-.28.68-.91.36-1.37h0Z"/>
    <path class="cls-3" d="M508.69,66.65c.38-.45.79-.87,1.23-1.25.11-.1.22-.19.34-.28.08-.06-.07.05.07-.05.05-.04.1-.08.16-.11.25-.18.5-.35.76-.51.25-.15.5-.29.76-.42.13-.06.26-.13.39-.19.06-.03.12-.05.18-.08-.13.05.02,0,.07-.03.55-.22,1.12-.38,1.7-.5.51-.11.86-.74.7-1.23-.18-.54-.68-.81-1.23-.7-2.53.53-4.86,1.95-6.53,3.93-.34.4-.42,1.03,0,1.41.37.34,1.05.43,1.41,0h0Z"/>
    <ellipse class="cls-3" cx="519.66" cy="49.33" rx="2.3" ry="2.16" transform="translate(453.78 567.15) rotate(-88.17)"/>
    <ellipse class="cls-3" cx="493.46" cy="49.19" rx="2.3" ry="2.16" transform="translate(428.55 540.82) rotate(-88.17)"/>
    <path class="cls-3" d="M520.54,36.69c-1.28-.27-2.58-.38-3.89-.3-.52.03-1.03.44-1,1,.02.51.44,1.04,1,1,.59-.04,1.19-.04,1.78,0,.15.01.3.02.45.04.07,0,.14.02.21.02s.28.06.01,0c.29.07.6.1.9.16.51.11,1.11-.15,1.23-.7.11-.5-.15-1.11-.7-1.23h0Z"/>
    <path class="cls-3" d="M494.84,36.18c-1.26-.13-2.53-.04-3.76.22-.51.11-.86.74-.7,1.23.17.54.68.82,1.23.7.29-.06.58-.11.87-.15l-.27.04c.87-.12,1.75-.13,2.63-.03.24.03.54-.13.71-.29.17-.17.3-.46.29-.71s-.1-.53-.29-.71c-.21-.19-.43-.26-.71-.29h0Z"/>
    <path class="cls-5" d="M549.23,44.79c.75,6.63-4.53,16.58-12.05,16.09,0,0-2.14-16.35-.83-18.45,1.84-2.96,5.54-3.29,6.48-3.34,4.05-.21,6.01,2.31,6.4,5.71Z"/>
    <path class="cls-10" d="M560.9,94.49l-96.67,17.2c-10.54,1.83-18.07,11.22-17.58,21.9l5.08,110.76c1.82,7.85,9.5,13.04,17.81,12.03l134.3-10.28c5.97-.46,10.57-5.46,10.53-11.45l-.6-91.52c-.13-19.22-10.8-37.05-28.05-45.52-11.31-5.55-19.02-3.84-24.83-3.14Z"/>
    <path class="cls-10" d="M632.44,206.01c-23.14-25.24-60.19-48.14-68.26-51.62.68.29,6.91,2.83,15.43,1.26l-11.26-60.95c11.32-2.09,20.08,2.1,30.36,7.81,6.81,3.78,14.96,8.83,22.93,14.21,15.56,10.5,37.99,27.24,56.48,47.41l-45.68,41.88Z"/>
    <path class="cls-10" d="M432.08,221.21l-42.51-45.1c5.31-5.01,52.17-49.15,61.3-57.03l40.51,46.9c-6.14,5.31-38.83,35.94-59.31,55.23Z"/>
    <g>
      <path class="cls-4" d="M437.6,148.56c-12.97,0-25.94-4.94-35.81-14.81-19.74-19.74-19.74-51.87,0-71.61,19.74-19.74,51.87-19.75,71.62,0h0c19.74,19.74,19.74,51.87,0,71.61-9.87,9.87-22.84,14.81-35.81,14.81ZM437.6,54.76c-11.06,0-22.13,4.21-30.55,12.63-16.84,16.85-16.84,44.25,0,61.1,16.85,16.85,44.25,16.84,61.1,0,16.84-16.84,16.84-44.25,0-61.1h0c-8.42-8.42-19.49-12.63-30.55-12.63Z"/>
      <rect class="cls-4" x="492.05" y="120.77" width="7.44" height="70.68" transform="translate(34.82 396.28) rotate(-45)"/>
      <g>
        <rect class="cls-4" x="525.79" y="175.42" width="5.58" height="27.03" rx="2.25" ry="2.25" transform="translate(21.22 429.1) rotate(-45)"/>
        <path class="cls-4" d="M536.17,203.03c-1.74,0-3.37-.68-4.6-1.91l-15.17-15.17c-2.54-2.54-2.54-6.67,0-9.21,1.23-1.23,2.87-1.91,4.6-1.91s3.37.68,4.6,1.91l15.17,15.17c2.54,2.54,2.54,6.67,0,9.21h0c-1.23,1.23-2.87,1.91-4.6,1.91Z"/>
      </g>
    </g>
    <g>
      <path class="cls-5" d="M378.39,372.39c-1.81,0-3.56-1-4.43-2.72-.49-.98-.77-2.09-1.18-3.78-1.14-4.68-3.26-13.38-10.97-23.07-1.71-2.14-1.35-5.26.79-6.97,2.14-1.7,5.26-1.35,6.97.79,9.07,11.4,11.62,21.87,12.85,26.91.16.67.37,1.5.47,1.81,1.12,2.41.13,5.3-2.27,6.51-.72.36-1.48.53-2.23.53ZM382.81,365.2s.03.06.04.08c-.01-.03-.03-.06-.04-.08Z"/>
      <path class="cls-5" d="M323.65,330.43l47.94-.26s1.31,49.8-26.42,48.39c-27.73-1.41-21.52-48.13-21.52-48.13Z"/>
      <path class="cls-5" d="M342.42,396.75c-1.45,0-2.83-.86-3.43-2.28-.79-1.89.09-4.06,1.97-4.86.81-.35,19.1-8.61,22.18-36.84.22-2.04,2.07-3.5,4.1-3.29,2.04.22,3.52,2.06,3.29,4.1-3.58,32.8-25.73,42.49-26.67,42.88-.47.2-.96.29-1.44.29Z"/>
      <path class="cls-5" d="M329.69,390.61c-1.59,0-3.06-1.03-3.55-2.63-.6-1.96.5-4.04,2.47-4.64,7.96-2.44,16.21-11.65,17.43-13.25.86-1.35,2.52-2.04,4.15-1.59,1.98.56,3.13,2.61,2.58,4.58-.52,1.87-11.25,14.08-21.98,17.37-.36.11-.73.16-1.09.16ZM345.6,371.07s0,0,0,0c0,0,0,0,0,0ZM345.6,371.06s0,0,0,0c0,0,0,0,0,0Z"/>
      <path class="cls-5" d="M320.93,381.53c-1.82,0-3.42-1.34-3.68-3.2-.29-2.03,1.13-3.91,3.16-4.2,8.45-1.19,12.67-8.97,12.71-9.05.89-1.85,3.1-2.59,4.95-1.69,1.85.89,2.6,3.16,1.71,5.01-.05.11-5.8,11.34-18.34,13.1-.18.02-.35.04-.52.04Z"/>
      <path class="cls-5" d="M315.93,370.91c-1.59,0-3.06-1.03-3.55-2.63-.6-1.96.5-4.04,2.47-4.64,8.07-2.47,10.83-10.75,10.86-10.84.55-1.98,2.6-3.09,4.57-2.53,1.98.55,3.12,2.65,2.57,4.63-.03.12-3.71,12.15-15.81,15.85-.36.11-.73.16-1.09.16Z"/>
    </g>
    <g>
      <path class="cls-5" d="M546.06,169.9c-1.8,0-3.54-.99-4.42-2.7-5.63-11.03-12.69-16.56-16.47-19.53-1.37-1.07-2.27-1.78-2.96-2.63-1.72-2.13-1.38-5.26.76-6.97,2.09-1.68,5.13-1.39,6.86.63.24.22.91.75,1.45,1.17,4.08,3.2,12.56,9.85,19.19,22.82,1.25,2.44.28,5.43-2.16,6.67-.72.37-1.49.54-2.25.54ZM529.88,138.75s.04.05.06.07c-.02-.02-.04-.05-.06-.07Z"/>
      <path class="cls-5" d="M547.19,211.79l29.75-37.19s-64.54-32.87-74.72-7.04c-10.18,25.83,44.97,44.22,44.97,44.22Z"/>
      <path class="cls-5" d="M487.91,167.81c-1.01,0-2.01-.4-2.74-1.2-1.38-1.51-1.29-3.85.21-5.23.75-.69,18.72-16.87,50.08-6.56,1.95.64,3.01,2.74,2.37,4.69-.64,1.95-2.75,3.01-4.69,2.37-27.01-8.87-42.09,4.4-42.72,4.97-.71.65-1.61.97-2.5.97Z"/>
      <path class="cls-5" d="M488.23,181.94c-.88,0-1.75-.31-2.46-.93-1.54-1.36-1.69-3.71-.33-5.25,7.42-8.4,23-13.11,24.89-12.83,2.03.31,3.43,2.21,3.12,4.24-.25,1.67-1.57,2.9-3.16,3.12-1.96.45-13.76,4.15-19.27,10.4-.73.83-1.76,1.26-2.79,1.26Z"/>
      <path class="cls-5" d="M492.87,193.67c-.68,0-1.37-.19-1.99-.58-1.73-1.1-2.25-3.4-1.15-5.13,6.79-10.69,19.38-11.28,19.51-11.28,2.07-.02,3.75,1.58,3.8,3.63.05,2.03-1.54,3.71-3.55,3.8-.36.03-8.98.75-13.48,7.84-.71,1.12-1.91,1.73-3.14,1.73Z"/>
      <path class="cls-5" d="M500.48,202.62c-.88,0-1.75-.31-2.46-.93-1.54-1.36-1.69-3.71-.33-5.25,8.38-9.49,20.85-7.87,20.97-7.85,2.03.31,3.42,2.21,3.11,4.24-.31,2-2.17,3.38-4.16,3.12-.37-.04-8.85-.81-14.34,5.41-.73.83-1.76,1.26-2.79,1.26Z"/>
    </g>
    <path class="cls-5" d="M663.74,259.84c-29.01,0-70.34-19.53-125.24-50.2-5.42-3.03-11.55-6.45-13.23-7.22,7.04,3.22,20.6,2.69,28.7-8.58,7.66-10.65-1.54-17.26-8.02-24.19l-29.75,27.38c-9.89-10.56-8.43-24.57-1.87-32.95,5.52-7.05,16.9-13.14,30.8-7.1,1.39.6,2.96,1.37,5.09,2.5,3.15,1.67,7.27,3.96,12.47,6.87,14.66,8.19,36.82,20.57,58.29,30.28,33.3,15.05,43.15,13.69,43.56,13.62,0,0-.12.02-.31.07l13.33,47.76c-4.25,1.19-8.85,1.76-13.82,1.76Z"/>
    <g>
      <polygon class="cls-9" points="209.69 78.76 240.36 192.44 324.9 169.63 303.63 90.77 259.42 65.35 209.69 78.76"/>
      <polygon class="cls-7" points="303.63 90.77 259.42 65.35 268.81 100.16 303.63 90.77"/>
      <polygon class="cls-9" points="6.3 33.05 68.41 166.49 167.65 120.29 124.56 27.72 64.67 5.88 6.3 33.05"/>
      <polygon class="cls-7" points="124.56 27.72 64.67 5.88 83.69 46.75 124.56 27.72"/>
      <polygon class="cls-9" points="91.23 195.33 138.72 297.36 214.6 262.04 181.65 191.26 135.86 174.56 91.23 195.33"/>
      <polygon class="cls-7" points="181.65 191.26 135.86 174.56 150.4 205.81 181.65 191.26"/>
    </g>
    <g>
      <polygon class="cls-9" points="937.08 198.03 875.13 298.17 949.6 344.24 992.58 274.77 980.88 225.13 937.08 198.03"/>
      <polygon class="cls-7" points="992.58 274.77 980.88 225.13 961.91 255.8 992.58 274.77"/>
      <polygon class="cls-9" points="831.29 18.4 776.44 154.99 878.03 195.78 916.07 101.02 891.04 42.39 831.29 18.4"/>
      <polygon class="cls-7" points="916.07 101.02 891.04 42.39 874.24 84.23 916.07 101.02"/>
      <polygon class="cls-9" points="771.01 191.36 729.08 295.8 806.75 326.98 835.83 254.53 816.69 209.71 771.01 191.36"/>
      <polygon class="cls-7" points="835.83 254.53 816.69 209.71 803.85 241.69 835.83 254.53"/>
    </g>
  </g>
</svg>