<?xml version="1.0" encoding="UTF-8"?>
<svg id="Capa_1" data-name="Capa 1" xmlns="http://www.w3.org/2000/svg" viewBox="0 0 32 32">
  <defs>
    <style>
      .cls-1 {
        fill: #fff;
      }

      .cls-2 {
        fill: #609931;
      }

      .cls-3 {
        fill: #3f3f3f;
      }
    </style>
  </defs>
  <g>
    <path class="cls-2" d="M27.67,26.95c-2.92,3.12-7.06,5.05-11.68,5.05C7.16,32,0,24.84,0,15.99,0,11.55,1.82,7.53,4.73,4.64l22.94,22.31Z"/>
    <path class="cls-3" d="M32,15.99c0,4.23-1.64,8.1-4.33,10.95L4.73,4.64C7.63,1.77,11.6,0,15.99,0c8.84,0,16.01,7.16,16.01,15.99Z"/>
  </g>
  <g>
    <path class="cls-1" d="M9.28,20.57h6.1v2.69H5.78v-14.53h3.5v11.84Z"/>
    <path class="cls-1" d="M26.22,11.44h-4.36v11.83h-3.5v-11.83h-4.28v-2.7h12.15v2.7Z"/>
  </g>
</svg>